<?xml version="1.0" standalone="no"?>
<!DOCTYPE svg PUBLIC "-//W3C//DTD SVG 20010904//EN"
 "http://www.w3.org/TR/2001/REC-SVG-20010904/DTD/svg10.dtd">
<svg version="1.0" xmlns="http://www.w3.org/2000/svg"
 width="670.000000pt" height="670.000000pt" viewBox="0 0 670.000000 670.000000"
 preserveAspectRatio="xMidYMid meet">
<metadata>
Created by potrace 1.11, written by Peter Selinger 2001-2013
</metadata>
<g transform="translate(0.000000,670.000000) scale(0.100000,-0.100000)"
fill="#000000" stroke="none">
<path d="M3170 6674 c-122 -9 -419 -46 -489 -60 -180 -37 -537 -152 -656 -212
-33 -16 -71 -33 -85 -37 -26 -8 -89 -41 -202 -106 -36 -22 -69 -39 -73 -39
-16 0 -301 -198 -394 -274 -214 -175 -352 -316 -556 -567 -207 -254 -433 -685
-533 -1019 -117 -388 -147 -594 -147 -1005 0 -410 30 -617 146 -1003 102 -336
328 -771 533 -1021 206 -252 331 -379 556 -566 102 -86 299 -221 410 -283 30
-16 82 -45 115 -64 186 -104 399 -189 658 -263 261 -74 322 -84 702 -116 205
-18 572 3 818 46 108 19 425 103 472 125 11 6 45 19 76 29 196 66 471 208 701
362 199 133 298 216 503 424 124 127 146 150 251 275 46 55 215 304 250 370
11 19 29 49 41 68 68 104 188 383 259 602 113 352 148 584 148 1000 1 412 -32
656 -135 985 -57 184 -64 203 -135 363 -35 78 -64 144 -64 147 0 12 -170 301
-224 380 -235 346 -576 683 -928 916 -68 45 -132 85 -143 89 -11 4 -57 30
-102 58 -45 27 -128 69 -185 93 -57 23 -112 48 -123 55 -51 32 -455 157 -607
188 -200 41 -669 74 -858 60z m2077 -1412 c-169 -169 -307 -310 -307 -314 0
-5 266 -9 592 -10 l591 -3 73 -145 c40 -80 86 -181 103 -225 16 -44 48 -129
70 -188 65 -174 138 -510 161 -736 13 -131 13 -424 0 -566 -9 -100 -45 -326
-72 -450 -14 -67 -101 -338 -144 -447 -51 -132 -138 -312 -201 -416 l-56 -92
-2198 0 c-1755 0 -2197 3 -2192 13 4 6 120 124 258 260 241 237 254 248 281
240 16 -4 70 -8 119 -8 115 1 190 32 264 110 90 95 110 205 39 205 -16 0 -18
6 -12 48 5 38 2 52 -10 65 -15 15 -13 18 19 43 20 15 45 40 56 56 18 25 19 33
9 59 -32 77 -230 223 -358 264 -81 27 -193 17 -275 -23 -72 -36 -146 -97 -176
-146 l-21 -34 -37 19 c-21 11 -45 19 -55 19 -13 0 -18 8 -18 25 l0 25 -280 0
-280 0 0 -84 c0 -79 1 -85 22 -88 14 -2 25 -14 32 -35 23 -68 44 -78 171 -81
l115 -4 -16 -31 c-28 -54 -112 -134 -167 -158 -44 -20 -68 -24 -157 -23 -126
0 -165 14 -211 76 -129 175 -109 415 46 556 68 63 132 86 235 85 92 -1 141
-18 244 -85 100 -67 133 -68 188 -9 83 89 35 165 -171 270 -155 79 -212 95
-336 95 -197 0 -383 -91 -498 -244 -83 -110 -115 -282 -83 -444 36 -182 199
-426 329 -490 l51 -26 -292 0 c-161 0 -292 1 -292 3 0 2 -25 75 -55 163 -56
160 -120 441 -147 644 -8 58 -13 202 -13 370 1 383 28 573 131 921 91 310 285
692 481 951 105 138 215 270 255 303 l30 25 2236 0 2237 0 -308 -308z m-2827
-2769 c0 -5 -9 -23 -20 -41 -25 -41 -78 -64 -138 -60 l-47 3 95 51 c101 54
110 58 110 47z m-545 -80 c61 -111 106 -173 144 -199 l36 -24 -255 0 -255 1
44 21 c65 32 161 126 205 202 21 36 40 66 41 66 2 0 20 -30 40 -67z"/>
<path d="M1210 4884 c-143 -39 -247 -157 -269 -306 -4 -29 -5 -224 -2 -433 l6
-380 52 -3 c44 -3 52 -6 57 -27 7 -26 36 -40 65 -30 34 10 41 59 41 285 0 268
2 280 44 280 24 0 35 -7 47 -29 19 -33 59 -41 200 -41 64 0 89 -4 90 -12 1 -7
5 -105 8 -218 l6 -205 48 -3 c39 -3 50 -7 59 -27 22 -49 79 -44 97 8 8 21 11
142 11 355 -1 216 2 328 10 337 14 17 -5 105 -38 170 -35 70 -174 210 -242
245 -99 49 -191 60 -290 34z m253 -235 c51 -14 68 -44 76 -139 l7 -80 -183 0
-182 0 15 53 c40 134 145 200 267 166z"/>
<path d="M5167 4874 c-3 -4 -4 -47 0 -95 3 -49 4 -89 1 -89 -21 0 -97 35 -131
60 -22 16 -44 27 -48 24 -4 -2 -21 -29 -38 -60 l-30 -55 35 -21 c25 -15 34
-27 34 -47 0 -14 7 -37 16 -49 19 -28 13 -37 -42 -65 -44 -22 -48 -22 -95 -8
-35 11 -49 20 -49 33 0 16 -11 18 -107 18 -157 0 -209 -17 -295 -98 -48 -45
-78 -84 -101 -131 -30 -61 -32 -73 -32 -166 0 -94 -1 -99 -16 -84 -9 9 -31 20
-48 24 -47 10 -47 22 0 64 36 31 43 44 43 74 0 48 -7 53 -42 28 -35 -25 -42
-26 -42 -7 0 63 -146 231 -239 275 -50 23 -68 26 -166 26 -99 0 -116 -3 -168
-27 -73 -35 -160 -121 -193 -193 -14 -30 -31 -87 -38 -127 -12 -72 -12 -72
-19 -33 -13 77 -97 221 -176 301 -74 75 -136 98 -266 98 -137 0 -196 -23 -286
-113 -48 -48 -72 -82 -90 -126 -23 -59 -24 -66 -27 -464 -3 -327 -1 -406 10
-412 7 -5 33 -9 58 -9 37 0 47 -4 55 -22 13 -29 54 -36 72 -12 9 12 13 52 13
124 0 59 3 142 7 184 6 77 6 77 32 71 14 -3 37 -15 51 -26 70 -56 172 -78 267
-59 151 31 244 130 282 301 11 46 20 74 20 63 1 -12 17 -53 36 -92 41 -81 98
-137 204 -202 l71 -42 -21 -30 c-12 -16 -20 -31 -18 -33 2 -2 32 -13 66 -24
73 -25 201 -28 278 -7 122 32 217 110 270 221 19 39 35 79 35 88 0 40 22 21
61 -54 74 -143 169 -216 309 -238 200 -33 291 12 277 135 -6 55 -28 81 -80 95
-25 6 -41 17 -44 30 -5 16 -14 19 -63 19 -98 0 -118 8 -142 53 -15 31 -19 54
-16 97 7 103 67 153 203 170 42 5 84 14 94 20 26 13 61 72 61 101 0 22 0 22
15 3 8 -10 15 -27 15 -36 0 -9 16 -33 35 -53 l34 -37 69 7 69 7 12 -45 c15
-63 56 -91 117 -84 57 6 91 37 102 91 9 45 11 46 99 31 55 -10 98 19 113 75
13 48 3 75 -44 118 -20 18 -36 37 -36 42 0 5 14 18 30 30 47 34 65 75 51 121
-14 47 -63 89 -102 89 -24 0 -33 7 -46 35 -12 25 -22 34 -32 29 -9 -3 -21 -8
-27 -10 -6 -3 -16 7 -22 21 -12 27 -47 45 -87 45 -17 0 -25 6 -27 23 -3 20 -9
22 -63 25 -34 2 -64 0 -68 -4z m-2072 -577 c90 -90 63 -302 -49 -376 -35 -23
-49 -26 -130 -26 -77 0 -99 4 -141 25 l-50 25 3 82 c3 97 20 152 67 209 50 60
122 94 203 94 59 0 67 -3 97 -33z m760 -16 c-75 -48 -217 -122 -222 -117 -9 9
28 65 63 96 52 45 89 59 159 59 l60 1 -60 -39z m264 -147 c-15 -14 -35 -24
-45 -22 -15 3 -12 7 16 25 47 30 60 29 29 -3z m-113 -76 c-9 -48 -52 -114 -93
-145 -31 -24 -48 -29 -114 -32 -64 -2 -86 1 -122 18 -57 28 -93 101 -49 101
10 0 22 4 27 8 6 5 23 14 38 20 26 11 27 11 17 -7 -13 -24 -4 -48 21 -56 21
-7 72 14 184 78 44 25 84 46 89 46 5 1 6 -13 2 -31z"/>
<path d="M1950 4514 c-36 -7 -76 -22 -90 -32 -65 -47 -84 -171 -40 -252 39
-69 183 -161 327 -206 62 -20 116 -40 119 -45 11 -19 -6 -58 -29 -65 -12 -5
-116 -8 -232 -9 l-210 0 -3 -64 c-4 -75 1 -81 76 -81 45 0 52 -3 52 -20 0 -34
32 -40 222 -40 206 0 248 8 294 54 62 62 66 177 8 246 -13 15 -24 32 -24 37 0
6 -13 28 -28 49 -36 49 -108 89 -242 134 -87 29 -105 39 -105 55 0 39 61 57
223 62 81 3 153 10 160 16 18 14 15 34 -8 55 -13 12 -23 38 -27 71 l-6 51
-186 -1 c-120 0 -209 -6 -251 -15z"/>
<path d="M2955 3025 c-22 -13 -48 -29 -57 -35 -15 -9 -18 -7 -18 15 0 25 -1
25 -75 25 l-75 0 2 -382 3 -383 57 -3 c50 -3 57 -6 60 -25 4 -30 62 -37 76
-10 5 10 12 104 14 208 4 163 8 198 26 246 26 64 66 107 139 143 37 18 55 34
59 51 7 27 -9 55 -31 55 -17 0 -25 23 -25 76 l0 44 -57 0 c-43 0 -68 -6 -98
-25z"/>
<path d="M5508 3039 c-151 -17 -255 -120 -278 -276 -15 -104 -13 -493 3 -498
6 -2 32 -6 57 -10 34 -4 48 -11 55 -28 11 -24 42 -33 65 -17 12 7 16 50 21
232 6 235 11 259 59 321 34 42 93 69 148 65 42 -3 49 -6 64 -38 16 -30 18 -67
18 -281 l0 -246 52 -5 c41 -4 55 -11 71 -32 21 -30 57 -34 82 -10 14 15 16 47
13 273 l-3 256 -49 83 c-98 166 -213 230 -378 211z"/>
<path d="M4585 3027 c-119 -31 -191 -90 -246 -203 -32 -65 -34 -74 -34 -179 0
-103 2 -114 31 -176 38 -80 91 -141 153 -177 25 -14 60 -36 76 -48 47 -34 119
-54 198 -54 89 0 138 13 169 45 32 35 93 35 120 0 23 -29 68 -34 89 -8 18 21
25 307 11 412 -21 144 -155 324 -277 370 -74 28 -217 37 -290 18z m267 -203
c29 -5 43 -15 60 -43 19 -31 23 -53 26 -163 5 -163 -5 -298 -23 -298 -19 0
-25 24 -25 96 0 35 -2 64 -5 64 -3 0 -25 -16 -50 -35 -83 -63 -163 -68 -257
-17 -38 20 -50 33 -58 61 -36 129 43 277 170 321 58 20 101 24 162 14z"/>
<path d="M3377 3016 c-60 -22 -114 -62 -144 -108 l-28 -41 -3 -304 -3 -303 33
0 c50 0 77 -10 83 -31 9 -27 52 -36 73 -15 15 14 18 50 22 254 5 215 7 241 26
277 40 78 153 112 181 55 9 -18 13 -95 13 -278 0 -193 3 -254 13 -257 6 -2 32
-6 57 -10 34 -4 48 -11 55 -28 6 -12 19 -23 31 -25 44 -6 49 17 54 262 5 214
7 234 27 273 28 51 72 83 123 90 65 9 70 -15 70 -317 l0 -250 24 0 c49 0 82
-12 91 -33 12 -27 47 -33 69 -12 14 14 16 50 16 283 l0 266 -42 70 c-53 91
-91 131 -153 164 -44 24 -61 27 -145 27 -102 0 -137 -12 -193 -63 l-27 -26
-33 32 c-17 17 -49 38 -69 46 -46 20 -169 20 -221 2z"/>
</g>
</svg>
